<svg xmlns="http://www.w3.org/2000/svg" fill="none" viewBox="0 0 320 320">
  <defs>
    <linearGradient id="a" x1="0" x2="0" y1="0" y2="1">
      <stop offset="0" stop-color="#0A7AFF"/>
      <stop offset="1" stop-color="#59B9FF"/>
    </linearGradient>
  </defs>
  <path fill="url(#a)" d="M69.931 38.457C106.387 65.92 145.606 121.594 160 151.471v78.914c0-1.68-.646.219-2.037 4.308-7.513 22.14-36.858 108.552-103.961 39.472-35.333-36.371-18.976-72.743 45.34-83.724-36.794 6.28-78.159-4.099-89.508-44.793C6.565 133.942 1 61.835 1 52.096c0-48.783 42.627-33.45 68.931-13.639zm180.138 0C213.613 65.92 174.394 121.594 160 151.471v78.914c0-1.68.646.219 2.037 4.308 7.513 22.14 36.858 108.552 103.961 39.472 35.333-36.371 18.976-72.743-45.34-83.724 36.794 6.28 78.159-4.099 89.508-44.793C313.435 133.942 319 61.835 319 52.096c0-48.783-42.622-33.45-68.931-13.639z"/>
</svg>
