<svg xmlns="http://www.w3.org/2000/svg" viewBox="0 0 320 320">
  <path fill="#0866ff" d="M179.265 317.85C257.997 308.319 319 241.282 319 159.998c0-87.812-71.188-159-159-159S1 72.186 1 159.998c0 74.571 51.33 137.146 120.593 154.327l3.074-12.994h48.583l6.015 16.519z"/>
  <path fill="#fff" d="M121.584 314.325V208.59H88.768v-48.592h32.816v-20.935c0-54.122 24.486-79.182 77.592-79.182 10.052 0 27.41 1.97 34.538 3.94v44.016c-3.754-.38-10.308-.574-18.382-.574-26.076 0-36.128 9.858-36.128 35.554v17.181h51.966l-8.904 48.583h-42.992V317.85a160.616 160.616 0 0 1-57.681-3.525h-.01z" class="xe3v8dz"/>
</svg>
