<?xml version="1.0" encoding="UTF-8"?>
<svg xmlns="http://www.w3.org/2000/svg" xmlns:xlink="http://www.w3.org/1999/xlink" width="64pt" height="64pt" viewBox="0 0 64 64" version="1.1">
<g id="surface202767">
<path style=" stroke:none;fill-rule:nonzero;fill:rgb(24.705882%,36.470588%,60.392157%);fill-opacity:1;" d="M 32 6.667969 C 18.007812 6.667969 6.667969 18.007812 6.667969 32 C 6.667969 45.992188 18.007812 57.332031 32 57.332031 C 45.992188 57.332031 57.332031 45.992188 57.332031 32 C 57.332031 18.007812 45.992188 6.667969 32 6.667969 Z M 32 6.667969 "/>
<path style=" stroke:none;fill-rule:nonzero;fill:rgb(100%,100%,100%);fill-opacity:1;" d="M 35.429688 38.714844 L 41.984375 38.714844 L 43.015625 32.054688 L 35.429688 32.054688 L 35.429688 28.414062 C 35.429688 25.648438 36.332031 23.195312 38.921875 23.195312 L 43.078125 23.195312 L 43.078125 17.382812 C 42.347656 17.285156 40.800781 17.066406 37.882812 17.066406 C 31.785156 17.066406 28.210938 20.289062 28.210938 27.625 L 28.210938 32.054688 L 21.941406 32.054688 L 21.941406 38.714844 L 28.210938 38.714844 L 28.210938 57.019531 C 29.453125 57.207031 30.710938 57.332031 32 57.332031 C 33.167969 57.332031 34.304688 57.226562 35.429688 57.074219 Z M 35.429688 38.714844 "/>
</g>
</svg>
