<?xml version="1.0" encoding="UTF-8"?>
<svg xmlns="http://www.w3.org/2000/svg" xmlns:xlink="http://www.w3.org/1999/xlink" width="64pt" height="64pt" viewBox="0 0 64 64" version="1.1">
<g id="surface64857">
<path style=" stroke:none;fill-rule:nonzero;fill:rgb(100%,100%,100%);fill-opacity:1;" d="M 8 13.332031 C 8 10.398438 10.398438 8 13.332031 8 L 50.667969 8 C 53.601562 8 56 10.398438 56 13.332031 L 56 50.667969 C 56 53.601562 53.601562 56 50.667969 56 L 13.332031 56 C 10.398438 56 8 53.601562 8 50.667969 Z M 8 13.332031 "/>
<path style=" stroke:none;fill-rule:nonzero;fill:rgb(26.666667%,0%,87.45098%);fill-opacity:1;" d="M 21.332031 22.667969 C 16.179688 22.667969 12 26.84375 12 32 C 12 37.15625 16.179688 41.332031 21.332031 41.332031 C 26.488281 41.332031 30.667969 37.15625 30.667969 32 C 30.667969 26.84375 26.488281 22.667969 21.332031 22.667969 Z M 21.332031 22.667969 "/>
<path style=" stroke:none;fill-rule:nonzero;fill:rgb(100%,0%,46.27451%);fill-opacity:1;" d="M 42.667969 22.667969 C 37.511719 22.667969 33.332031 26.84375 33.332031 32 C 33.332031 37.15625 37.511719 41.332031 42.667969 41.332031 C 47.820312 41.332031 52 37.15625 52 32 C 52 26.84375 47.820312 22.667969 42.667969 22.667969 Z M 42.667969 22.667969 "/>
</g>
</svg>
