<?xml version="1.0" encoding="UTF-8"?>
<svg xmlns="http://www.w3.org/2000/svg" xmlns:xlink="http://www.w3.org/1999/xlink" width="64pt" height="64pt" viewBox="0 0 64 64" version="1.1">
<g id="surface230098">
<path style=" stroke:none;fill-rule:nonzero;fill:rgb(100%,100%,100%);fill-opacity:1;" d="M 54.667969 32 C 54.667969 44.535156 44.535156 54.667969 32 54.667969 C 19.464844 54.667969 9.332031 44.535156 9.332031 32 C 9.332031 19.464844 19.464844 9.332031 32 9.332031 C 44.535156 9.332031 54.667969 19.464844 54.667969 32 Z M 54.667969 32 "/>
<path style=" stroke:none;fill-rule:nonzero;fill:rgb(14.117647%,16.078431%,18.039216%);fill-opacity:1;" d="M 28 54.667969 L 28 47.332031 C 28 46.933594 28.265625 46.667969 28.667969 46.667969 C 29.066406 46.667969 29.332031 46.933594 29.332031 47.332031 L 29.332031 54.667969 L 32 54.667969 L 32 46 C 32 45.601562 32.265625 45.332031 32.667969 45.332031 C 33.066406 45.332031 33.332031 45.601562 33.332031 46 L 33.332031 54.667969 L 36 54.667969 L 36 47.332031 C 36 46.933594 36.265625 46.667969 36.667969 46.667969 C 37.066406 46.667969 37.332031 46.933594 37.332031 47.332031 L 37.332031 54.667969 L 39.734375 54.667969 C 40 54.265625 40 53.867188 40 53.199219 L 40 48 C 40 45.066406 37.464844 41.066406 34.265625 41.066406 L 30.933594 41.066406 C 27.867188 41.066406 25.199219 45.199219 25.199219 48 L 25.199219 53.199219 C 25.199219 53.734375 25.332031 54.265625 25.464844 54.667969 Z M 53.464844 35.199219 C 53.464844 35.199219 51.734375 34.667969 50.265625 34.667969 L 50.132812 34.667969 C 48.667969 34.667969 46.265625 35.066406 46.265625 35.066406 C 46.132812 35.066406 46.132812 35.066406 46.132812 34.933594 C 46.132812 34.800781 46.132812 34.800781 46.265625 34.800781 C 46.398438 34.800781 48.933594 34.398438 50.398438 34.398438 C 51.867188 34.398438 53.601562 34.933594 53.734375 34.933594 C 53.867188 34.933594 53.867188 35.066406 53.867188 35.199219 C 53.601562 35.066406 53.601562 35.199219 53.464844 35.199219 Z M 53.066406 36.265625 C 53.066406 36.265625 51.199219 35.734375 49.601562 35.734375 C 48.398438 35.734375 45.601562 36 45.464844 36 C 45.332031 36 45.332031 36 45.332031 35.867188 C 45.332031 35.734375 45.332031 35.734375 45.464844 35.734375 C 45.601562 35.734375 48.398438 35.464844 49.601562 35.464844 C 51.332031 35.464844 53.066406 36 53.066406 36 C 53.199219 36 53.199219 36.132812 53.199219 36.265625 C 53.199219 36.132812 53.199219 36.265625 53.066406 36.265625 Z M 10.398438 35.199219 C 10.265625 35.199219 10.265625 35.199219 10.265625 35.066406 C 10.265625 34.933594 10.265625 34.933594 10.398438 34.800781 C 11.464844 34.535156 13.601562 34.132812 14.800781 34.132812 C 15.867188 34.132812 19.464844 34.398438 19.601562 34.398438 C 19.734375 34.398438 19.734375 34.535156 19.734375 34.535156 C 19.734375 34.667969 19.601562 34.667969 19.601562 34.667969 C 19.601562 34.667969 16 34.398438 14.933594 34.398438 C 13.464844 34.667969 11.464844 34.933594 10.398438 35.199219 Z M 10.933594 37.199219 C 10.933594 37.199219 10.800781 37.199219 10.800781 37.066406 C 10.800781 36.933594 10.800781 36.933594 10.800781 36.800781 C 10.933594 36.800781 12.667969 35.734375 14.667969 35.464844 C 16.398438 35.199219 20 35.601562 20.265625 35.601562 C 20.398438 35.601562 20.398438 35.734375 20.398438 35.734375 C 20.398438 35.867188 20.265625 35.867188 20.265625 35.867188 C 20.265625 35.867188 16.535156 35.464844 14.800781 35.734375 C 12.800781 36.132812 10.933594 37.199219 10.933594 37.199219 Z M 10.933594 37.199219 "/>
<path style=" stroke:none;fill-rule:nonzero;fill:rgb(14.117647%,16.078431%,18.039216%);fill-opacity:1;" d="M 18.933594 31.332031 C 18.933594 25.464844 25.066406 20 32.667969 20 C 40.265625 20 46.398438 25.332031 46.398438 31.332031 C 46.398438 37.332031 42 41.332031 32.667969 41.332031 C 23.332031 41.332031 18.933594 37.199219 18.933594 31.332031 Z M 18.933594 31.332031 "/>
<path style=" stroke:none;fill-rule:nonzero;fill:rgb(14.117647%,16.078431%,18.039216%);fill-opacity:1;" d="M 38.132812 21.734375 C 38.132812 21.734375 40.398438 18.667969 44.535156 18.667969 C 46.132812 20.265625 45.066406 25.066406 44.535156 26.398438 Z M 27.199219 21.734375 C 27.199219 21.734375 24.933594 18.667969 20.800781 18.667969 C 19.199219 20.265625 20.265625 25.066406 20.800781 26.398438 Z M 26.800781 47.867188 C 26.800781 47.867188 23.734375 47.867188 23.066406 47.867188 C 21.464844 47.867188 20 47.199219 19.332031 45.867188 C 18.535156 44.398438 17.867188 42.800781 15.867188 41.464844 C 15.464844 41.199219 15.734375 40.933594 16.398438 40.933594 C 17.066406 41.066406 18.265625 41.199219 19.199219 42.398438 C 20.132812 43.601562 21.199219 45.066406 22.933594 45.066406 C 24.667969 45.066406 26.535156 45.066406 27.601562 43.867188 Z M 26.800781 47.867188 "/>
<path style=" stroke:none;fill-rule:nonzero;fill:rgb(14.117647%,16.078431%,18.039216%);fill-opacity:1;" d="M 32 5.332031 C 17.332031 5.332031 5.332031 17.332031 5.332031 32 C 5.332031 46.667969 17.332031 58.667969 32 58.667969 C 46.667969 58.667969 58.667969 46.667969 58.667969 32 C 58.667969 17.332031 46.667969 5.332031 32 5.332031 Z M 32 53.332031 C 20.265625 53.332031 10.667969 43.734375 10.667969 32 C 10.667969 20.265625 20.265625 10.667969 32 10.667969 C 43.734375 10.667969 53.332031 20.265625 53.332031 32 C 53.332031 43.734375 43.734375 53.332031 32 53.332031 Z M 32 53.332031 "/>
</g>
</svg>
