<?xml version="1.0" encoding="UTF-8" standalone="no"?>
<svg
   xmlns:dc="http://purl.org/dc/elements/1.1/"
   xmlns:cc="http://creativecommons.org/ns#"
   xmlns:rdf="http://www.w3.org/1999/02/22-rdf-syntax-ns#"
   xmlns:svg="http://www.w3.org/2000/svg"
   xmlns="http://www.w3.org/2000/svg"
   xmlns:sodipodi="http://sodipodi.sourceforge.net/DTD/sodipodi-0.dtd"
   xmlns:inkscape="http://www.inkscape.org/namespaces/inkscape"
   width="64pt"
   height="64pt"
   viewBox="0 0 64 64"
   version="1.1"
   id="svg13"
   sodipodi:docname="github.svg"
   inkscape:version="0.92.5 (2060ec1f9f, 2020-04-08)">
  <metadata
     id="metadata19">
    <rdf:RDF>
      <cc:Work
         rdf:about="">
        <dc:format>image/svg+xml</dc:format>
        <dc:type
           rdf:resource="http://purl.org/dc/dcmitype/StillImage" />
      </cc:Work>
    </rdf:RDF>
  </metadata>
  <defs
     id="defs17" />
  <sodipodi:namedview
     pagecolor="#ffffff"
     bordercolor="#666666"
     borderopacity="1"
     objecttolerance="10"
     gridtolerance="10"
     guidetolerance="10"
     inkscape:pageopacity="0"
     inkscape:pageshadow="2"
     inkscape:window-width="1366"
     inkscape:window-height="704"
     id="namedview15"
     showgrid="false"
     inkscape:zoom="15.644738"
     inkscape:cx="42.666667"
     inkscape:cy="21.977761"
     inkscape:window-x="0"
     inkscape:window-y="27"
     inkscape:window-maximized="1"
     inkscape:current-layer="surface230098" />
  <g
     id="surface230098">
    <path
       style=" stroke:none;fill-rule:nonzero;fill:rgb(100%,100%,100%);fill-opacity:1;"
       d="M 54.667969 32 C 54.667969 44.535156 44.535156 54.667969 32 54.667969 C 19.464844 54.667969 9.332031 44.535156 9.332031 32 C 9.332031 19.464844 19.464844 9.332031 32 9.332031 C 44.535156 9.332031 54.667969 19.464844 54.667969 32 Z M 54.667969 32 "
       id="path2" />
    <path
       style="fill:#23282e;fill-opacity:1;fill-rule:nonzero;stroke:none"
       d="m 36,54.667969 c -5.513011,-0.0011 -5.47537,-0.0508 1.332031,0 h 2.402344 C 40,54.265625 40,53.867188 40,53.199219 V 48 c 0,-2.933594 -2.535156,-6.933594 -5.734375,-6.933594 h -3.332031 c -3.066406,0 -5.734375,4.132813 -5.734375,6.933594 v 5.199219 c 7.112304,0.769096 5.4886,1.463668 10.800781,1.46875 z"
       id="path4"
       inkscape:connector-curvature="0"
       sodipodi:nodetypes="cccssssscc" />
    <path
       style=" stroke:none;fill-rule:nonzero;fill:rgb(14.117647%,16.078431%,18.039216%);fill-opacity:1;"
       d="M 18.933594 31.332031 C 18.933594 25.464844 25.066406 20 32.667969 20 C 40.265625 20 46.398438 25.332031 46.398438 31.332031 C 46.398438 37.332031 42 41.332031 32.667969 41.332031 C 23.332031 41.332031 18.933594 37.199219 18.933594 31.332031 Z M 18.933594 31.332031 "
       id="path6" />
    <path
       style=" stroke:none;fill-rule:nonzero;fill:rgb(14.117647%,16.078431%,18.039216%);fill-opacity:1;"
       d="M 38.132812 21.734375 C 38.132812 21.734375 40.398438 18.667969 44.535156 18.667969 C 46.132812 20.265625 45.066406 25.066406 44.535156 26.398438 Z M 27.199219 21.734375 C 27.199219 21.734375 24.933594 18.667969 20.800781 18.667969 C 19.199219 20.265625 20.265625 25.066406 20.800781 26.398438 Z M 26.800781 47.867188 C 26.800781 47.867188 23.734375 47.867188 23.066406 47.867188 C 21.464844 47.867188 20 47.199219 19.332031 45.867188 C 18.535156 44.398438 17.867188 42.800781 15.867188 41.464844 C 15.464844 41.199219 15.734375 40.933594 16.398438 40.933594 C 17.066406 41.066406 18.265625 41.199219 19.199219 42.398438 C 20.132812 43.601562 21.199219 45.066406 22.933594 45.066406 C 24.667969 45.066406 26.535156 45.066406 27.601562 43.867188 Z M 26.800781 47.867188 "
       id="path8" />
    <path
       style=" stroke:none;fill-rule:nonzero;fill:rgb(14.117647%,16.078431%,18.039216%);fill-opacity:1;"
       d="M 32 5.332031 C 17.332031 5.332031 5.332031 17.332031 5.332031 32 C 5.332031 46.667969 17.332031 58.667969 32 58.667969 C 46.667969 58.667969 58.667969 46.667969 58.667969 32 C 58.667969 17.332031 46.667969 5.332031 32 5.332031 Z M 32 53.332031 C 20.265625 53.332031 10.667969 43.734375 10.667969 32 C 10.667969 20.265625 20.265625 10.667969 32 10.667969 C 43.734375 10.667969 53.332031 20.265625 53.332031 32 C 53.332031 43.734375 43.734375 53.332031 32 53.332031 Z M 32 53.332031 "
       id="path10" />
  </g>
</svg>
