<svg xmlns="http://www.w3.org/2000/svg" xml:space="preserve" viewBox="0 0 320 320">
  <path d="M160.34 4.309C72.087 4.309.79 75.605.79 163.859c0 70.604 45.685 130.48 109.02 151.591 7.96 1.384 11.075-3.461 11.075-7.614 0-3.807-.346-16.267-.346-29.764-40.147 7.268-50.53-9.691-53.645-18.69-1.73-4.499-9.69-18.689-16.266-22.496-5.538-3.115-13.498-10.383-.346-10.729 12.46-.346 21.458 11.421 24.573 16.267 14.536 24.226 37.378 17.304 46.377 13.151 1.384-10.383 5.537-17.305 10.036-21.458-35.648-4.153-72.68-17.65-72.68-78.91 0-17.305 6.23-31.84 16.267-42.916-1.73-4.153-7.268-20.42 1.73-42.224 0 0 13.498-4.153 43.954 16.267 12.806-3.461 26.304-5.538 39.802-5.538 13.497 0 26.995 1.73 39.8 5.538 30.457-20.766 43.955-16.267 43.955-16.267 8.652 21.804 3.115 38.417 1.73 42.224 10.037 11.075 16.267 25.265 16.267 42.916 0 61.26-37.378 74.757-73.026 78.91 5.883 4.846 10.729 14.536 10.729 29.418 0 21.458-.347 38.417-.347 43.955 0 4.153 3.115 9.344 11.076 7.614 62.99-21.112 108.674-80.987 108.674-151.59 1.038-87.91-70.604-159.205-158.858-159.205z" vector-effect="non-scaling-stroke"/>
</svg>
