<svg xmlns="http://www.w3.org/2000/svg" viewBox="0 0 320 320">
  <g fill="#fff">
    <path fill-rule="evenodd" d="M160 1.233c-87.674 0-158.77 72.879-158.77 162.79 0 71.922 45.493 132.942 108.577 154.468 7.935 1.507 10.848-3.532 10.848-7.831 0-3.88-.147-16.706-.216-30.308-44.17 9.847-53.49-19.208-53.49-19.208-7.222-18.813-17.628-23.819-17.628-23.819-14.406-10.104 1.085-9.896 1.085-9.896 15.944 1.148 24.339 16.778 24.339 16.778 14.16 24.884 37.142 17.69 46.202 13.53 1.427-10.519 5.54-17.703 10.08-21.768-35.265-4.114-72.336-18.075-72.336-80.451 0-17.77 6.202-32.295 16.359-43.695-1.649-4.1-7.083-20.658 1.54-43.08 0 0 13.333-4.373 43.67 16.688 12.665-3.607 26.247-5.415 39.74-5.48 13.493.065 27.086 1.873 39.774 5.48 30.304-21.061 43.618-16.689 43.618-16.689 8.642 22.423 3.208 38.98 1.56 43.08 10.18 11.4 16.337 25.925 16.337 43.696 0 62.527-37.142 76.291-72.497 80.322 5.695 5.051 10.77 14.958 10.77 30.146 0 21.781-.182 39.312-.182 44.674 0 4.334 2.855 9.408 10.903 7.812 63.053-21.55 108.487-82.549 108.487-154.45 0-89.91-71.085-162.79-158.77-162.79"/>
    <path d="M61.36 234.963c-.35.812-1.59 1.054-2.721.499-1.154-.534-1.798-1.636-1.425-2.448.342-.83 1.583-1.062 2.734-.507 1.152.532 1.81 1.645 1.412 2.456m6.44 7.35c-.757.72-2.24.386-3.241-.752-1.042-1.135-1.233-2.655-.466-3.383.781-.72 2.217-.383 3.255.752 1.041 1.148 1.244 2.653.452 3.383m6.26 9.38c-.972.695-2.566.046-3.549-1.402-.973-1.45-.973-3.186.024-3.882.983-.695 2.553-.067 3.55 1.367.97 1.472.97 3.208-.025 3.917m8.57 9.05c-.87.984-2.724.72-4.08-.625-1.388-1.31-1.775-3.173-.905-4.157.884-.987 2.748-.709 4.115.623 1.378 1.31 1.796 3.186.87 4.16m11.83 5.259c-.386 1.275-2.169 1.852-3.967 1.31-1.796-.558-2.971-2.048-2.608-3.337.373-1.283 2.166-1.887 3.978-1.307 1.793.555 2.97 2.038 2.597 3.334m13 .98c.045 1.343-1.48 2.456-3.368 2.48-1.898.043-3.436-1.043-3.457-2.364 0-1.356 1.493-2.456 3.389-2.49 1.888-.039 3.436 1.042 3.436 2.374m12.09-2.11c.227 1.308-1.085 2.653-2.96 3.011-1.843.348-3.549-.463-3.783-1.76-.229-1.342 1.104-2.688 2.947-3.035 1.878-.335 3.558.453 3.797 1.784"/>
  </g>
</svg>
