<?xml version="1.0" encoding="UTF-8" standalone="no"?>
<!-- Created with Inkscape (http://www.inkscape.org/) -->

<svg
   xmlns:dc="http://purl.org/dc/elements/1.1/"
   xmlns:cc="http://creativecommons.org/ns#"
   xmlns:rdf="http://www.w3.org/1999/02/22-rdf-syntax-ns#"
   xmlns:svg="http://www.w3.org/2000/svg"
   xmlns="http://www.w3.org/2000/svg"
   xmlns:sodipodi="http://sodipodi.sourceforge.net/DTD/sodipodi-0.dtd"
   xmlns:inkscape="http://www.inkscape.org/namespaces/inkscape"
   width="85.333328"
   height="85.333328"
   viewBox="0 0 85.333328 85.333328"
   version="1.1"
   id="SVGRoot"
   inkscape:version="0.92.5 (0.92.5+69)"
   sodipodi:docname="instagram.svg">
  <defs
     id="defs72" />
  <sodipodi:namedview
     id="base"
     pagecolor="#ffffff"
     bordercolor="#666666"
     borderopacity="1.0"
     inkscape:pageopacity="0.0"
     inkscape:pageshadow="2"
     inkscape:zoom="4"
     inkscape:cx="32"
     inkscape:cy="32"
     inkscape:document-units="px"
     inkscape:current-layer="layer1"
     showgrid="false"
     inkscape:window-width="1366"
     inkscape:window-height="704"
     inkscape:window-x="0"
     inkscape:window-y="27"
     inkscape:window-maximized="1"
     inkscape:grid-bbox="true" />
  <metadata
     id="metadata75">
    <rdf:RDF>
      <cc:Work
         rdf:about="">
        <dc:format>image/svg+xml</dc:format>
        <dc:type
           rdf:resource="http://purl.org/dc/dcmitype/StillImage" />
        <dc:title></dc:title>
      </cc:Work>
    </rdf:RDF>
  </metadata>
  <g
     inkscape:label="Layer 1"
     inkscape:groupmode="layer"
     id="layer1"
     transform="translate(0,21.33333)">
    <path
       d="M 56.889222,53.332998 H 28.444777 C 18.667,53.332998 10.667,45.332999 10.667,35.555222 V 7.1107772 c 0,-9.777777 8,-17.7777772 17.777777,-17.7777772 h 28.444445 c 9.777777,0 17.777776,8.0000002 17.777776,17.7777772 V 35.555222 c 0,9.777777 -7.999999,17.777776 -17.777776,17.777776 z"
       id="path2"
       inkscape:connector-curvature="0"
       style="fill:#304ffe;stroke-width:1.77777767" />
    <path
       d="M 10.667,7.1107772 V 35.555222 c 0,9.777777 8,17.777776 17.777777,17.777776 h 28.444445 c 9.777777,0 17.777776,-7.999999 17.777776,-17.777776 V 7.1107772 c 0,-1.777777 -0.177777,-3.377777 -0.71111,-4.977777 -9.955556,-8 -22.755556,-12.8000002 -36.622222,-12.8000002 -6.577777,0 -12.977777,1.0666668 -19.022222,3.2000001 C 13.689223,-4.2669998 10.667,1.0663332 10.667,7.1107772 Z"
       id="path4"
       inkscape:connector-curvature="0"
       style="fill:#304ffe;fill-opacity:0.28999999;stroke-width:1.77777767" />
    <path
       d="m 37.333666,-7.1114448 c -8.888889,0 -17.066666,2.133334 -24.533333,5.688889 C 11.378111,1.2441112 10.667,4.0885552 10.667,7.1107772 V 35.555222 c 0,9.777777 8,17.777776 17.777777,17.777776 h 28.444445 c 9.777777,0 17.777776,-7.999999 17.777776,-17.777776 V 7.4663332 C 64.889221,-1.6003338 51.733666,-7.1114448 37.333666,-7.1114448 Z"
       id="path6"
       inkscape:connector-curvature="0"
       style="fill:#6200ea;stroke-width:1.77777767" />
    <path
       d="M 74.666998,12.44411 C 65.244776,2.6663332 52.089222,-3.5558888 37.333666,-3.5558888 c -9.6,0 -18.666666,2.66666605 -26.31111,7.288889 C 10.844778,4.7996662 10.667,5.8663332 10.667,7.1107772 V 35.555222 c 0,9.777777 8,17.777776 17.777777,17.777776 h 28.444445 c 9.777777,0 17.777776,-7.999999 17.777776,-17.777776 z"
       id="path8"
       inkscape:connector-curvature="0"
       style="fill:#673ab7;stroke-width:1.77777767" />
    <path
       d="M 74.666998,17.777443 C 65.955888,6.9330002 52.444776,-3.3375293e-4 37.333666,-3.3375293e-4 27.37811,-3.3375293e-4 18.311444,3.0218892 10.667,8.1774442 V 35.555222 c 0,9.777777 8,17.777776 17.777777,17.777776 h 28.444445 c 9.777777,0 17.777776,-7.999999 17.777776,-17.777776 z"
       id="path10"
       inkscape:connector-curvature="0"
       style="fill:#8e24aa;stroke-width:1.77777767" />
    <path
       d="M 74.666998,35.555222 V 23.821888 C 66.666999,11.732999 52.97811,3.5552222 37.333666,3.5552222 c -9.955556,0 -19.2,3.377778 -26.666666,8.8888878 v 23.111112 c 0,9.777777 8,17.777776 17.777777,17.777776 h 28.444445 c 9.777777,0 17.777776,-7.999999 17.777776,-17.777776 z"
       id="path12"
       inkscape:connector-curvature="0"
       style="fill:#c2185b;stroke-width:1.77777767" />
    <path
       d="M 74.666998,35.555222 V 31.288555 C 68.266999,17.066333 54.044776,7.1107772 37.333666,7.1107772 27.200333,7.1107772 17.77811,10.844111 10.667,17.066333 v 18.488889 c 0,9.777777 8,17.777776 17.777777,17.777776 h 28.444445 c 9.777777,0 17.777776,-7.999999 17.777776,-17.777776 z"
       id="path14"
       inkscape:connector-curvature="0"
       style="fill:#d81b60;stroke-width:1.77777767" />
    <path
       d="M 73.955888,40.532999 C 70.578109,23.466332 55.466999,10.666333 37.333666,10.666333 c -10.488889,0 -19.91111,4.266666 -26.666666,11.2 v 13.688889 c 0,9.777777 8,17.777776 17.777777,17.777776 h 28.444445 c 7.999999,0 14.933332,-5.333333 17.066666,-12.799999 z"
       id="path16"
       inkscape:connector-curvature="0"
       style="fill:#f50057;stroke-width:1.77777767" />
    <path
       d="M 70.933665,46.221888 C 70.044776,28.44411 55.466999,14.221889 37.333666,14.221889 c -10.844444,0 -20.444443,5.155554 -26.666666,13.155554 v 8.177779 c 0,9.777777 8,17.777776 17.777777,17.777776 h 28.444445 c 5.688887,0 10.844443,-2.844444 14.044443,-7.11111 z"
       id="path18"
       inkscape:connector-curvature="0"
       style="fill:#ff1744;stroke-width:1.77777767" />
    <path
       d="m 37.333666,17.777443 c -11.555556,0 -21.51111,6.4 -26.666666,16 v 1.777779 c 0,9.777777 8,17.777776 17.777777,17.777776 h 28.444445 c 3.91111,0 7.644443,-1.244444 10.488887,-3.555556 0,-0.533333 0.177779,-1.244443 0.177779,-1.777777 0,-16.71111 -13.511112,-30.222222 -30.222222,-30.222222 z"
       id="path20"
       inkscape:connector-curvature="0"
       style="fill:#ff5722;stroke-width:1.77777767" />
    <path
       d="m 37.333666,21.332999 c -12.444444,0 -22.755555,8.355556 -25.777777,19.91111 2.311111,7.111112 9.066667,12.088889 16.888888,12.088889 h 28.444445 c 2.488887,0 4.622221,-0.533333 6.755554,-1.422222 0.177779,-1.244444 0.355556,-2.666667 0.355556,-3.911111 0,-14.755555 -11.91111,-26.666666 -26.666666,-26.666666 z"
       id="path22"
       inkscape:connector-curvature="0"
       style="fill:#ff6f00;stroke-width:1.77777767" />
    <path
       d="m 37.333666,24.888555 c -12.266666,0 -22.222222,9.422221 -22.933333,21.333333 3.2,4.266666 8.355556,7.11111 14.044444,7.11111 h 28.444445 c 1.066666,0 1.955554,-0.177777 3.022221,-0.355556 0.355556,-1.6 0.533333,-3.2 0.533333,-4.977777 0,-12.799999 -10.31111,-23.11111 -23.11111,-23.11111 z"
       id="path24"
       inkscape:connector-curvature="0"
       style="fill:#ff9800;stroke-width:1.77777767" />
    <path
       d="m 56.17811,53.332998 c 0.533333,-1.777777 0.711112,-3.555556 0.711112,-5.333333 0,-10.844444 -8.711112,-19.555555 -19.555556,-19.555555 -10.844444,0 -19.555556,8.711111 -19.555556,19.555555 0,0.533334 0,1.244444 0.177779,1.777777 3.022221,2.133334 6.577777,3.555556 10.488888,3.555556 z"
       id="path26"
       inkscape:connector-curvature="0"
       style="fill:#ffc107;stroke-width:1.77777767" />
    <path
       d="m 37.333666,31.999666 c -8.888889,0 -16,7.11111 -16,15.999999 0,1.422223 0.177778,2.844444 0.533334,4.088889 1.955556,0.888888 4.266666,1.244444 6.577777,1.244444 h 23.999999 c 0.533334,-1.6 0.88889,-3.377777 0.88889,-5.333333 0,-8.888889 -7.111111,-15.999999 -16,-15.999999 z"
       id="path28"
       inkscape:connector-curvature="0"
       style="fill:#ffd54f;stroke-width:1.77777767" />
    <path
       d="m 37.333666,35.732999 c -6.933333,0 -12.444444,5.51111 -12.444444,12.444444 0,1.777778 0.355555,3.377778 1.066667,4.977778 0.888888,0.177777 1.6,0.177777 2.488888,0.177777 h 20.266666 c 0.711112,-1.6 1.066667,-3.377777 1.066667,-5.155555 0,-6.933334 -5.511111,-12.444444 -12.444444,-12.444444 z"
       id="path30"
       inkscape:connector-curvature="0"
       style="fill:#ffe082;stroke-width:1.77777767" />
    <path
       d="m 37.333666,39.288555 c -4.977777,0 -8.888889,3.91111 -8.888889,8.888888 0,1.955555 0.711112,3.733333 1.777779,5.155555 h 14.22222 c 1.066667,-1.422222 1.777779,-3.2 1.777779,-5.155555 0,-4.977778 -3.911112,-8.888888 -8.888889,-8.888888 z"
       id="path32"
       inkscape:connector-curvature="0"
       style="fill:#ffecb3;stroke-width:1.77777767" />
    <path
       d="M 53.333666,46.221888 H 32.000333 c -7.822223,0 -14.222223,-6.4 -14.222223,-14.222222 V 10.666333 c 0,-7.8222218 6.4,-14.2222218 14.222223,-14.2222218 h 21.333333 c 7.822222,0 14.222222,6.4 14.222222,14.2222218 v 21.333333 c 0,7.822222 -6.4,14.222222 -14.222222,14.222222 z M 32.000333,-3.3375293e-4 c -5.866667,0 -10.666667,4.79999995293 -10.666667,10.66666675293 v 21.333333 c 0,5.866666 4.8,10.666666 10.666667,10.666666 h 21.333333 c 5.866666,0 10.666666,-4.8 10.666666,-10.666666 V 10.666333 c 0,-5.8666668 -4.8,-10.66666675293 -10.666666,-10.66666675293 z"
       id="path34"
       inkscape:connector-curvature="0"
       style="fill:#ffffff;stroke-width:1.77777767" />
    <path
       d="m 42.666999,33.777443 c -6.933333,0 -12.444443,-5.511111 -12.444443,-12.444444 0,-6.933333 5.51111,-12.4444438 12.444443,-12.4444438 6.933333,0 12.444444,5.5111108 12.444444,12.4444438 0,6.933333 -5.511111,12.444444 -12.444444,12.444444 z m 0,-21.333333 c -4.977777,0 -8.888889,3.911112 -8.888889,8.888889 0,4.977777 3.911112,8.888889 8.888889,8.888889 4.977777,0 8.888889,-3.911112 8.888889,-8.888889 0,-4.977777 -3.911112,-8.888889 -8.888889,-8.888889 z M 56.889222,7.1107772 c 0,1.066667 -0.711112,1.777778 -1.777779,1.777778 -1.066667,0 -1.777777,-0.711111 -1.777777,-1.777778 0,-1.066666 0.71111,-1.777777 1.777777,-1.777777 1.066667,0 1.777779,0.711111 1.777779,1.777777 z"
       id="path36"
       inkscape:connector-curvature="0"
       style="fill:#ffffff;stroke-width:1.77777767" />
  </g>
</svg>
