<?xml version="1.0" encoding="UTF-8"?>
<svg xmlns="http://www.w3.org/2000/svg" xmlns:xlink="http://www.w3.org/1999/xlink" width="64pt" height="64pt" viewBox="0 0 64 64" version="1.1">
<g id="surface226874">
<path style=" stroke:none;fill-rule:nonzero;fill:rgb(0%,45.098039%,69.019608%);fill-opacity:1;" d="M 56 49.332031 C 56 53.015625 53.015625 56 49.332031 56 L 14.667969 56 C 10.984375 56 8 53.015625 8 49.332031 L 8 14.667969 C 8 10.984375 10.984375 8 14.667969 8 L 49.332031 8 C 53.015625 8 56 10.984375 56 14.667969 Z M 56 49.332031 "/>
<path style=" stroke:none;fill-rule:nonzero;fill:rgb(100%,100%,100%);fill-opacity:1;" d="M 16 25.332031 L 22.667969 25.332031 L 22.667969 48 L 16 48 Z M 19.3125 22.667969 L 19.277344 22.667969 C 17.285156 22.667969 16 21.183594 16 19.332031 C 16 17.441406 17.328125 16 19.351562 16 C 21.378906 16 22.628906 17.441406 22.667969 19.332031 C 22.667969 21.183594 21.378906 22.667969 19.3125 22.667969 Z M 48 48 L 41.332031 48 L 41.332031 35.867188 C 41.332031 32.9375 39.699219 30.9375 37.078125 30.9375 C 35.074219 30.9375 33.992188 32.285156 33.46875 33.589844 C 33.277344 34.058594 33.332031 35.347656 33.332031 36 L 33.332031 48 L 26.667969 48 L 26.667969 25.332031 L 33.332031 25.332031 L 33.332031 28.820312 C 34.292969 27.332031 35.800781 25.332031 39.652344 25.332031 C 44.421875 25.332031 48 28.332031 48 35.03125 Z M 48 48 "/>
</g>
</svg>
