<svg xmlns="http://www.w3.org/2000/svg" viewBox="0 0 320 320">
  <defs>
    <linearGradient id="a" x1=".5" x2=".5" y1="0" y2="1">
      <stop stop-color="#6364FF"/>
      <stop offset="1" stop-color="#563ACC"/>
    </linearGradient>
  </defs>
  <path fill="url(#a)" d="M307.866 71.489c-4.592-34.134-34.342-61.035-69.608-66.247-5.95-.88-28.494-4.086-80.715-4.086h-.39c-52.236 0-63.442 3.205-69.392 4.086-34.285 5.068-65.595 29.24-73.19 63.778-3.655 17.01-4.045 35.867-3.366 53.165.968 24.806 1.156 49.57 3.408 74.275a349.371 349.371 0 0 0 8.131 48.717c7.221 29.601 36.45 54.234 65.089 64.284a174.57 174.57 0 0 0 95.228 5.025 139 139 0 0 0 10.297-2.816c7.683-2.44 16.68-5.17 23.295-9.963a.752.752 0 0 0 .303-.578v-23.94a.705.705 0 0 0-.866-.678 263.951 263.951 0 0 1-61.796 7.22c-35.816 0-45.448-16.996-48.207-24.07a74.613 74.613 0 0 1-4.188-18.974.688.688 0 0 1 .254-.573.69.69 0 0 1 .613-.135 258.909 258.909 0 0 0 60.785 7.22c4.924 0 9.835 0 14.76-.13 20.593-.577 42.299-1.631 62.56-5.588.506-.1 1.011-.187 1.444-.317 31.96-6.137 62.374-25.399 65.465-74.175.115-1.92.404-20.113.404-22.106.014-6.772 2.18-48.04-.318-73.394z"/>
  <path fill="#fff" d="M257.234 109.839v84.801h-33.606v-82.303c0-17.327-7.221-26.164-21.908-26.164-16.146 0-24.233 10.454-24.233 31.102v45.05h-33.404v-45.05c0-20.648-8.102-31.102-24.247-31.102-14.601 0-21.894 8.837-21.894 26.164v82.303H64.35v-84.801c0-17.327 4.424-31.093 13.272-41.296 9.127-10.18 21.1-15.407 35.96-15.407 17.2 0 30.198 6.613 38.863 19.825l8.362 14.035 8.376-14.035c8.665-13.212 21.662-19.825 38.833-19.825 14.846 0 26.819 5.227 35.975 15.407 8.838 10.194 13.252 23.959 13.243 41.296z"/>
</svg>
