<?xml version="1.0" encoding="UTF-8" standalone="no"?>
<svg
   xmlns:dc="http://purl.org/dc/elements/1.1/"
   xmlns:cc="http://creativecommons.org/ns#"
   xmlns:rdf="http://www.w3.org/1999/02/22-rdf-syntax-ns#"
   xmlns:svg="http://www.w3.org/2000/svg"
   xmlns="http://www.w3.org/2000/svg"
   xmlns:xlink="http://www.w3.org/1999/xlink"
   xmlns:sodipodi="http://sodipodi.sourceforge.net/DTD/sodipodi-0.dtd"
   xmlns:inkscape="http://www.inkscape.org/namespaces/inkscape"
   version="1.1"
   preserveAspectRatio="xMidYMid meet"
   viewBox="0 0 85.333282 85.333282"
   width="5.3333302pc"
   height="5.3333302pc"
   id="svg22"
   sodipodi:docname="signal.svg"
   inkscape:version="1.0.2-2 (e86c870879, 2021-01-15)">
  <metadata
     id="metadata26">
    <rdf:RDF>
      <cc:Work
         rdf:about="">
        <dc:format>image/svg+xml</dc:format>
        <dc:type
           rdf:resource="http://purl.org/dc/dcmitype/StillImage" />
        <dc:title></dc:title>
      </cc:Work>
    </rdf:RDF>
  </metadata>
  <sodipodi:namedview
     pagecolor="#ffffff"
     bordercolor="#666666"
     borderopacity="1"
     objecttolerance="10"
     gridtolerance="10"
     guidetolerance="10"
     inkscape:pageopacity="0"
     inkscape:pageshadow="2"
     inkscape:window-width="1366"
     inkscape:window-height="705"
     id="namedview24"
     showgrid="false"
     units="pc"
     inkscape:zoom="5.9441164"
     inkscape:cx="49.969216"
     inkscape:cy="43.104402"
     inkscape:window-x="-8"
     inkscape:window-y="-8"
     inkscape:window-maximized="1"
     inkscape:current-layer="svg22" />
  <defs
     id="defs4">
    <path
       d="m 748,40 c 130.34,0 236,105.66 236,236 0,141.6 0,330.4 0,472 0,130.34 -105.66,236 -236,236 -141.6,0 -330.4,0 -472,0 C 145.66,984 40,878.34 40,748 40,606.4 40,417.6 40,276 40,145.66 145.66,40 276,40 c 141.6,0 330.4,0 472,0 z"
       id="cBtLMYpzY" />
    <path
       d="m 441.38,226.5 c -28.7,7.09 -56.17,18.46 -81.49,33.74 -1.56,-2.61 -14.02,-23.48 -15.58,-26.09 27.87,-16.88 58.15,-29.41 89.79,-37.15 1.46,5.9 6.56,26.55 7.28,29.5 z m 141.24,0 c 28.7,7.09 56.17,18.46 81.49,33.74 1.58,-2.61 14.19,-23.48 15.76,-26.09 C 651.93,217.29 621.6,204.76 589.9,197 c -1.46,5.9 -6.56,26.55 -7.28,29.5 z M 234.15,344.22 c -16.86,27.91 -29.39,58.21 -37.15,89.88 2.95,0.73 26.55,6.56 29.5,7.28 7.09,-28.7 18.46,-56.17 33.74,-81.49 -5.22,-3.13 -20.88,-12.54 -26.09,-15.67 z m -12.91,123.71 c -3,-0.46 -27.05,-4.14 -30.05,-4.6 -4.89,32.23 -4.89,65.02 0,97.25 3,-0.45 27.05,-4.06 30.05,-4.51 -2.21,-14.59 -3.32,-29.32 -3.32,-44.07 0,-14.75 1.11,-29.48 3.32,-44.07 z m 442.87,295.83 c -25.28,15.29 -52.72,26.67 -81.4,33.74 0.73,2.95 6.55,26.55 7.28,29.5 31.61,-7.82 61.85,-20.37 89.7,-37.24 -3.12,-5.2 -14.02,-23.4 -15.58,-26 z M 802.76,556.07 c 3,0.45 27.05,4.06 30.05,4.51 4.89,-32.23 4.89,-65.02 0,-97.25 -3,0.46 -27.05,4.14 -30.05,4.6 2.21,14.59 3.32,29.32 3.32,44.07 0,14.75 -1.11,29.48 -3.32,44.07 z m -5.26,26.45 c -7.07,28.74 -18.45,56.25 -33.74,81.59 2.61,1.57 23.48,14.1 26.09,15.67 16.88,-27.93 29.41,-58.27 37.15,-89.97 -5.9,-1.46 -26.55,-6.56 -29.5,-7.29 z M 556.07,802.76 c -29.21,4.42 -58.93,4.42 -88.14,0 -0.45,3 -4.06,27.05 -4.51,30.05 32.2,4.89 64.96,4.89 97.16,0 -0.9,-6.01 -3.61,-24.04 -4.51,-30.05 z M 748.74,686.42 c -17.52,23.76 -38.53,44.74 -62.32,62.23 1.81,2.45 16.26,22.07 18.07,24.52 26.2,-19.29 49.38,-42.38 68.77,-68.5 -4.91,-3.65 -19.62,-14.6 -24.52,-18.25 z M 686.42,275.26 c 23.79,17.52 44.8,38.53 62.32,62.32 2.45,-1.82 22.07,-16.43 24.52,-18.25 -19.33,-26.15 -42.44,-49.26 -68.59,-68.59 -3.65,4.91 -14.6,19.62 -18.25,24.52 z m -411.16,62.32 c 17.52,-23.79 38.53,-44.8 62.32,-62.32 -1.82,-2.45 -16.43,-22.07 -18.25,-24.52 -26.15,19.33 -49.26,42.44 -68.59,68.59 4.91,3.65 19.62,14.6 24.52,18.25 z m 488.5,22.31 c 15.29,25.28 26.67,52.72 33.74,81.4 2.95,-0.73 26.55,-6.55 29.5,-7.28 -7.76,-31.64 -20.29,-61.92 -37.15,-89.79 0,0 -23.48,14.1 -26.09,15.67 z M 467.93,221.24 c 29.21,-4.42 58.93,-4.42 88.14,0 0.45,-3 4.06,-27.05 4.51,-30.05 -32.2,-4.89 -64.96,-4.89 -97.16,0 0.9,6.01 3.61,24.04 4.51,30.05 z m -177.09,560.04 -62.78,14.57 14.66,-62.78 -29.59,-6.92 c -8.8,37.67 -13.68,58.6 -14.66,62.78 -3.85,16.35 6.28,32.74 22.63,36.59 0.02,0 0.03,0.01 0.05,0.01 4.55,1.01 9.27,1.01 13.83,0 4.18,-0.97 25.11,-5.79 62.78,-14.47 z m -71.44,-82.23 29.68,6.82 c 6.09,-26.11 9.47,-40.61 10.14,-43.51 -14.81,-24.84 -25.84,-51.75 -32.72,-79.84 -2.95,0.73 -26.55,6.56 -29.5,7.29 6.63,26.88 16.67,52.81 29.86,77.16 -0.99,4.27 -3.48,14.97 -7.46,32.08 z m 141.97,65.82 -43.52,10.14 6.92,29.69 c 19.19,-4.49 29.85,-6.97 31.99,-7.47 24.32,13.23 50.26,23.27 77.16,29.87 0.73,-2.95 6.55,-26.55 7.28,-29.5 -28,-6.98 -54.81,-18.07 -79.56,-32.91 -0.03,0.02 -0.13,0.08 -0.27,0.18 z M 512,248.34 c -145.66,0.1 -263.56,118.19 -263.56,263.75 0.08,49.58 14.1,98.14 40.47,140.13 -1.69,7.21 -10.14,43.29 -25.36,108.23 64.89,-15.22 100.93,-23.67 108.14,-25.36 123.26,77.53 286.06,40.57 363.59,-82.6 C 812.81,529.33 775.93,366.53 652.77,288.91 610.61,262.39 561.81,248.33 512,248.34"
       id="aOoWMfVya" />
  </defs>
  <g
     id="g20"
     transform="matrix(0.06779661,0,0,0.06779661,7.9551356,7.9551356)">
    <g
       id="g18">
      <g
         id="g8">
        <use
           xlink:href="#cBtLMYpzY"
           opacity="1"
           fill="#3a76f0"
           fill-opacity="1"
           id="use6"
           x="0"
           y="0"
           width="100%"
           height="100%" />
      </g>
      <g
         id="g16">
        <use
           xlink:href="#aOoWMfVya"
           opacity="1"
           fill="#ffffff"
           fill-opacity="1"
           id="use10"
           x="0"
           y="0"
           width="100%"
           height="100%" />
        <g
           id="g14">
          <use
             xlink:href="#aOoWMfVya"
             opacity="1"
             fill-opacity="0"
             stroke="#000000"
             stroke-width="1"
             stroke-opacity="0"
             id="use12"
             x="0"
             y="0"
             width="100%"
             height="100%" />
        </g>
      </g>
    </g>
  </g>
</svg>
