<svg xmlns="http://www.w3.org/2000/svg" viewBox="0 0 320 320">
  <g fill="#3b45fd">
    <path d="M160 1c8.248 0 16.352.629 24.262 1.838l-2.275 14.735A145.212 145.212 0 0 0 160 15.906a145.8 145.8 0 0 0-21.987 1.665L135.74 2.838A160.237 160.237 0 0 1 160 1zm37.733 4.504-3.538 14.484a143.242 143.242 0 0 1 40.624 16.842l7.74-12.745a158.063 158.063 0 0 0-44.826-18.58zm56.234 26.22-8.808 12.025a144.896 144.896 0 0 1 31.09 31.094l12.027-8.81a159.904 159.904 0 0 0-34.31-34.309zm41.948 45.72-12.742 7.74a143.274 143.274 0 0 1 16.839 40.621l14.484-3.535a158.08 158.08 0 0 0-18.58-44.828v.002zm21.247 58.296-14.735 2.273A145.137 145.137 0 0 1 304.094 160c0 7.478-.57 14.82-1.667 21.987l14.735 2.275A160.412 160.412 0 0 0 319 160c0-8.248-.629-16.35-1.838-24.26zm-33.99 99.08a143.271 143.271 0 0 0 16.84-40.625l14.484 3.538a158.014 158.014 0 0 1-18.583 44.825l-12.74-7.739zm-6.923 10.34 12.027 8.809a159.944 159.944 0 0 1-34.31 34.307l-8.81-12.027a144.914 144.914 0 0 0 31.093-31.09zm-41.432 38.013 7.741 12.742a158.08 158.08 0 0 1-44.828 18.58l-3.535-14.483a143.274 143.274 0 0 0 40.622-16.84zm-52.83 19.254 2.273 14.735A160.38 160.38 0 0 1 160 319c-8.248 0-16.352-.629-24.262-1.838l2.275-14.733A145.403 145.403 0 0 0 160 304.094a145.137 145.137 0 0 0 21.987-1.667zm-56.182-2.413-3.538 14.482a157.827 157.827 0 0 1-34.341-12.733l-15.09 3.523-3.386-14.516 20.391-4.76 4.852 2.472a142.804 142.804 0 0 0 31.112 11.532zm-68.936-6.31 3.386 14.516-25.865 6.037c-17.217 4.015-32.662-11.433-28.645-28.647l6.035-25.865 14.516 3.386L20.259 289c-1.506 6.454 4.288 12.248 10.742 10.742l25.868-6.037zM29.23 250.55l-14.516-3.386 3.523-15.09A157.882 157.882 0 0 1 5.504 197.73l14.482-3.535a142.976 142.976 0 0 0 11.532 31.112l2.47 4.852-4.758 20.391zm-11.66-68.563L2.839 184.26A160.235 160.235 0 0 1 1 160c0-8.248.629-16.352 1.838-24.262l14.735 2.275A145.212 145.212 0 0 0 15.906 160c0 7.478.57 14.822 1.665 21.987zm2.418-56.182-14.484-3.538a158.06 158.06 0 0 1 18.583-44.825L36.83 85.18a143.24 143.24 0 0 0-16.842 40.624zm23.763-50.962-12.024-8.81a159.92 159.92 0 0 1 34.307-34.309l8.81 12.025A144.924 144.924 0 0 0 43.75 74.84v.002zm41.432-38.016-7.741-12.742A158.058 158.058 0 0 1 122.27 5.502l3.535 14.484A143.234 143.234 0 0 0 85.183 36.83v-.003z"/>
    <path d="M289.188 160c0 71.349-57.84 129.188-129.188 129.188-22.633 0-43.904-5.819-62.4-16.042a8.216 8.216 0 0 0-5.84-.847l-57.47 13.408 13.41-57.464a8.223 8.223 0 0 0-.845-5.843c-10.226-18.499-16.041-39.77-16.041-62.4C30.813 88.651 88.65 30.813 160 30.813S289.187 88.65 289.187 160z"/>
  </g>
</svg>
