<?xml version="1.0" encoding="UTF-8"?>
<svg xmlns="http://www.w3.org/2000/svg" xmlns:xlink="http://www.w3.org/1999/xlink" width="64pt" height="64pt" viewBox="0 0 64 64" version="1.1">
<g id="surface211389">
<path style=" stroke:none;fill-rule:nonzero;fill:rgb(0%,47.058824%,79.215686%);fill-opacity:1;" d="M 32 5.332031 C 17.273438 5.332031 5.332031 17.273438 5.332031 32 C 5.332031 46.726562 17.273438 58.667969 32 58.667969 C 46.726562 58.667969 58.667969 46.726562 58.667969 32 C 58.667969 17.273438 46.726562 5.332031 32 5.332031 Z M 32 5.332031 "/>
<path style=" stroke:none;fill-rule:nonzero;fill:rgb(0%,47.058824%,79.215686%);fill-opacity:1;" d="M 44.667969 29.332031 C 36.199219 29.332031 29.332031 36.199219 29.332031 44.667969 C 29.332031 53.136719 36.199219 60 44.667969 60 C 53.136719 60 60 53.136719 60 44.667969 C 60 36.199219 53.136719 29.332031 44.667969 29.332031 Z M 19.332031 4 C 10.863281 4 4 10.863281 4 19.332031 C 4 27.800781 10.863281 34.667969 19.332031 34.667969 C 27.800781 34.667969 34.667969 27.800781 34.667969 19.332031 C 34.667969 10.863281 27.800781 4 19.332031 4 Z M 19.332031 4 "/>
<path style=" stroke:none;fill-rule:nonzero;fill:rgb(100%,100%,100%);fill-opacity:1;" d="M 32.800781 48 C 24 48 20 43.597656 20 40.265625 C 20 38.53125 21.199219 37.332031 22.933594 37.332031 C 26.667969 37.332031 25.734375 42.800781 32.800781 42.800781 C 36.398438 42.800781 38.398438 40.800781 38.398438 38.800781 C 38.398438 37.601562 37.863281 36.265625 35.46875 35.601562 L 27.597656 33.601562 C 21.332031 32 20.136719 28.53125 20.136719 25.199219 C 20.136719 18.398438 26.402344 16 32.265625 16 C 37.734375 16 44 18.933594 44 22.933594 C 44 24.667969 42.667969 25.734375 40.933594 25.734375 C 37.734375 25.734375 38.265625 21.199219 31.863281 21.199219 C 28.667969 21.199219 26.800781 22.667969 26.800781 24.800781 C 26.800781 26.933594 29.332031 27.601562 31.597656 28.136719 L 37.46875 29.46875 C 43.863281 30.933594 45.332031 34.667969 45.332031 38.265625 C 45.199219 43.863281 41.199219 48 32.800781 48 Z M 32.800781 48 "/>
</g>
</svg>
