<?xml version="1.0" encoding="UTF-8" standalone="no"?>
<svg
   xmlns:dc="http://purl.org/dc/elements/1.1/"
   xmlns:cc="http://creativecommons.org/ns#"
   xmlns:rdf="http://www.w3.org/1999/02/22-rdf-syntax-ns#"
   xmlns:svg="http://www.w3.org/2000/svg"
   xmlns="http://www.w3.org/2000/svg"
   xmlns:sodipodi="http://sodipodi.sourceforge.net/DTD/sodipodi-0.dtd"
   xmlns:inkscape="http://www.inkscape.org/namespaces/inkscape"
   version="1.1"
   viewBox="0 0 85.333283 85.333283"
   id="svg23"
   sodipodi:docname="steam.svg"
   width="5.3333302pc"
   height="5.3333302pc"
   inkscape:version="1.0.2-2 (e86c870879, 2021-01-15)">
  <metadata
     id="metadata27">
    <rdf:RDF>
      <cc:Work
         rdf:about="">
        <dc:format>image/svg+xml</dc:format>
        <dc:type
           rdf:resource="http://purl.org/dc/dcmitype/StillImage" />
        <dc:title></dc:title>
      </cc:Work>
    </rdf:RDF>
  </metadata>
  <sodipodi:namedview
     pagecolor="#ffffff"
     bordercolor="#666666"
     borderopacity="1"
     objecttolerance="10"
     gridtolerance="10"
     guidetolerance="10"
     inkscape:pageopacity="0"
     inkscape:pageshadow="2"
     inkscape:window-width="1366"
     inkscape:window-height="705"
     id="namedview25"
     showgrid="false"
     inkscape:zoom="5.6728406"
     inkscape:cx="47.221526"
     inkscape:cy="41.576303"
     inkscape:window-x="-8"
     inkscape:window-y="-8"
     inkscape:window-maximized="1"
     inkscape:current-layer="svg23"
     inkscape:document-rotation="0"
     units="pc" />
  <defs
     id="defs17">
    <linearGradient
       id="a"
       x2="116.68872"
       x1="116.68872"
       y2="232.87497"
       gradientTransform="matrix(0.27470614,0,0,0.27482559,10.625802,10.667)"
       y1="0"
       gradientUnits="userSpaceOnUse">
      <stop
         stop-color="#111D2E"
         offset="0"
         id="stop2" />
      <stop
         stop-color="#051839"
         offset=".21248"
         id="stop4" />
      <stop
         stop-color="#0A1B48"
         offset=".40695"
         id="stop6" />
      <stop
         stop-color="#132E62"
         offset=".58110"
         id="stop8" />
      <stop
         stop-color="#144B7E"
         offset=".73760"
         id="stop10" />
      <stop
         stop-color="#136497"
         offset=".87279"
         id="stop12" />
      <stop
         stop-color="#1387B8"
         offset="1"
         id="stop14" />
    </linearGradient>
  </defs>
  <path
     fill="url(#a)"
     d="M 11.970138,51.871464 C 15.926107,65.058759 28.163415,74.667 42.646552,74.667 c 17.684083,0 32.020453,-14.32721 32.020453,-32 0,-17.673064 -14.33637,-32 -32.020453,-32 -16.969738,0 -30.855069,13.192515 -31.951735,29.873991 2.072149,3.477425 2.880741,5.628155 1.275624,11.330473 z"
     id="path19"
     style="fill:url(#a);stroke-width:0.274766" />
  <path
     fill="#ffffff"
     d="m 40.997128,34.652442 c 0,0.05384 0,0.107674 0.0027,0.158215 l -7.835525,11.374969 c -1.269273,-0.05768 -2.542945,0.164807 -3.750652,0.661975 -0.532392,0.216996 -1.031251,0.483434 -1.499327,0.791073 L 10.708807,40.560219 c 1.36e-4,0 -0.398125,6.545579 1.261029,11.423862 l 12.163373,5.015623 c 0.610725,2.727554 2.483028,5.12 5.245306,6.270901 4.519419,1.887039 9.730369,-0.263691 11.610367,-4.782146 0.48924,-1.181116 0.717368,-2.419914 0.684386,-3.655965 l 11.21128,-8.006868 c 0.0907,0.0027 0.184152,0.0055 0.274854,0.0055 6.709177,0 12.162273,-5.466094 12.162273,-12.178678 0,-6.713133 -5.453096,-12.174283 -12.162273,-12.174283 -6.706429,0 -12.162274,5.46115 -12.162274,12.174283 z M 39.117129,57.70288 C 37.662055,61.194039 33.647542,62.850348 30.158,61.3973 28.548183,60.727086 27.33278,59.499275 26.631628,58.035241 l 3.959267,1.639827 c 2.573454,1.071245 5.525932,-0.148326 6.595663,-2.719313 1.073028,-2.573733 -0.144299,-5.52927 -2.716379,-6.600514 l -4.092845,-1.694764 c 1.579308,-0.598799 3.374653,-0.620773 5.052085,0.07691 1.691174,0.703176 3.003325,2.027125 3.698705,3.719142 0.695379,1.692017 0.692631,3.559828 -0.01099,5.246352 M 53.159402,42.765884 c -4.466372,0 -8.102686,-3.639485 -8.102686,-8.113442 0,-4.470386 3.636314,-8.11097 8.102686,-8.11097 4.46912,0 8.105433,3.640584 8.105433,8.11097 0,4.473957 -3.636313,8.113442 -8.105433,8.113442 m -6.071517,-8.125803 c 0,-3.36563 2.726548,-6.095381 6.085259,-6.095381 3.36146,0 6.088008,2.729751 6.088008,6.095381 0,3.365906 -2.726548,6.093185 -6.088008,6.093185 -3.358711,0 -6.085259,-2.727279 -6.085259,-6.093185 z"
     id="path21"
     style="stroke-width:0.274766" />
</svg>
