<?xml version="1.0" encoding="UTF-8"?>
<svg xmlns="http://www.w3.org/2000/svg" xmlns:xlink="http://www.w3.org/1999/xlink" width="64pt" height="64pt" viewBox="0 0 64 64" version="1.1">
<g id="surface563228">
<path style=" stroke:none;fill-rule:nonzero;fill:rgb(100%,100%,100%);fill-opacity:1;" d="M 56 50.667969 C 56 53.613281 53.613281 56 50.667969 56 L 13.332031 56 C 10.386719 56 8 53.613281 8 50.667969 L 8 13.332031 C 8 10.386719 10.386719 8 13.332031 8 L 50.667969 8 C 53.613281 8 56 10.386719 56 13.332031 Z M 56 50.667969 "/>
<path style=" stroke:none;fill-rule:nonzero;fill:rgb(9.019608%,10.196078%,12.941176%);fill-opacity:1;" d="M 24.613281 44.859375 C 24.226562 44.859375 23.867188 44.785156 23.515625 44.671875 L 23.507812 44.699219 L 18.617188 43.28125 C 19.476562 45.785156 21.824219 47.597656 24.617188 47.597656 C 28.136719 47.597656 30.984375 44.75 30.984375 41.230469 C 30.984375 37.710938 28.136719 34.863281 24.617188 34.863281 C 23.09375 34.863281 21.714844 35.417969 20.617188 36.3125 L 25.332031 37.671875 C 25.371094 37.683594 25.40625 37.699219 25.445312 37.707031 L 25.511719 37.726562 L 25.511719 37.730469 C 27.078125 38.128906 28.242188 39.542969 28.242188 41.230469 C 28.246094 43.230469 26.617188 44.859375 24.613281 44.859375 Z M 41.230469 32.398438 C 45.527344 32.398438 49.011719 28.910156 49.011719 24.613281 C 49.011719 20.320312 45.527344 16.832031 41.230469 16.832031 C 36.9375 16.832031 33.449219 20.320312 33.449219 24.613281 C 33.449219 28.910156 36.9375 32.398438 41.230469 32.398438 Z M 41.226562 19.210938 C 44.214844 19.210938 46.632812 21.628906 46.632812 24.613281 C 46.632812 27.601562 44.214844 30.019531 41.226562 30.019531 C 38.246094 30.019531 35.828125 27.601562 35.828125 24.613281 C 35.828125 21.628906 38.246094 19.210938 41.226562 19.210938 Z M 41.226562 19.210938 "/>
<path style=" stroke:none;fill-rule:nonzero;fill:rgb(9.019608%,10.196078%,12.941176%);fill-opacity:1;" d="M 50.667969 8 L 13.332031 8 C 10.386719 8 8 10.386719 8 13.332031 L 8 32.660156 L 17.371094 35.371094 C 19.085938 33.25 21.675781 31.871094 24.613281 31.871094 C 24.707031 31.871094 24.792969 31.894531 24.886719 31.898438 L 30.054688 24.757812 C 30.054688 24.710938 30.046875 24.660156 30.046875 24.617188 C 30.046875 18.445312 35.054688 13.433594 41.230469 13.433594 C 47.40625 13.433594 52.410156 18.441406 52.410156 24.613281 C 52.410156 30.792969 47.40625 35.796875 41.230469 35.796875 C 41.171875 35.796875 41.113281 35.789062 41.054688 35.789062 L 33.949219 40.949219 C 33.949219 41.042969 33.976562 41.136719 33.976562 41.230469 C 33.976562 46.402344 29.785156 50.59375 24.613281 50.59375 C 19.824219 50.59375 15.921875 46.984375 15.367188 42.339844 L 8 40.210938 L 8 50.667969 C 8 53.613281 10.386719 56 13.332031 56 L 50.667969 56 C 53.613281 56 56 53.613281 56 50.667969 L 56 13.332031 C 56 10.386719 53.613281 8 50.667969 8 Z M 50.667969 8 "/>
</g>
</svg>
