<?xml version="1.0" encoding="UTF-8"?>
<svg xmlns="http://www.w3.org/2000/svg" xmlns:xlink="http://www.w3.org/1999/xlink" width="64pt" height="64pt" viewBox="0 0 64 64" version="1.1">
<g id="surface44549">
<path style=" stroke:none;fill-rule:nonzero;fill:rgb(0%,9.803922%,20.784314%);fill-opacity:1;" d="M 56 49.332031 C 56 53.015625 53.015625 56 49.332031 56 L 14.667969 56 C 10.984375 56 8 53.015625 8 49.332031 L 8 14.667969 C 8 10.984375 10.984375 8 14.667969 8 L 49.332031 8 C 53.015625 8 56 10.984375 56 14.667969 Z M 56 49.332031 "/>
<path style=" stroke:none;fill-rule:nonzero;fill:rgb(100%,100%,100%);fill-opacity:1;" d="M 42.667969 46.519531 C 42.667969 46.648438 42.617188 46.765625 42.519531 46.851562 C 42.402344 46.953125 39.628906 49.332031 33.261719 49.332031 C 25.628906 49.332031 25.40625 40.789062 25.40625 39.8125 L 25.332031 29.332031 L 21.769531 29.332031 C 21.527344 29.332031 21.332031 29.136719 21.332031 28.894531 L 21.332031 24.761719 C 21.332031 24.578125 21.445312 24.414062 21.609375 24.347656 C 21.679688 24.320312 28.503906 21.570312 28.503906 15.105469 C 28.503906 14.859375 28.699219 14.664062 28.941406 14.664062 L 32.894531 14.664062 C 33.136719 14.667969 33.332031 14.863281 33.332031 15.105469 L 33.332031 24 L 40.894531 24 C 41.136719 24 41.332031 24.195312 41.332031 24.4375 L 41.332031 28.898438 C 41.332031 29.140625 41.136719 29.332031 40.894531 29.332031 L 33.332031 29.332031 L 33.332031 39.613281 C 33.332031 39.75 33.753906 42.972656 37.011719 42.972656 C 39.710938 42.972656 41.976562 41.582031 42 41.566406 C 42.132812 41.480469 42.300781 41.480469 42.445312 41.554688 C 42.582031 41.628906 42.667969 41.777344 42.667969 41.941406 Z M 42.667969 46.519531 "/>
</g>
</svg>
