<?xml version="1.0" encoding="UTF-8"?>
<svg xmlns="http://www.w3.org/2000/svg" xmlns:xlink="http://www.w3.org/1999/xlink" width="64pt" height="64pt" viewBox="0 0 64 64" version="1.1">
<g id="surface47212">
<path style=" stroke:none;fill-rule:nonzero;fill:rgb(100%,100%,100%);fill-opacity:1;" d="M 6.492188 57.738281 L 10.082031 44.625 C 7.867188 40.785156 6.703125 36.433594 6.703125 31.972656 C 6.710938 18.019531 18.0625 6.667969 32.019531 6.667969 C 38.789062 6.667969 45.144531 9.304688 49.925781 14.089844 C 54.703125 18.871094 57.335938 25.230469 57.332031 31.992188 C 57.328125 45.945312 45.96875 57.296875 32.019531 57.296875 C 32.015625 57.296875 32.019531 57.296875 32.019531 57.296875 L 32.007812 57.296875 C 27.773438 57.296875 23.609375 56.234375 19.910156 54.21875 Z M 6.492188 57.738281 "/>
<path style=" stroke:none;fill-rule:nonzero;fill:rgb(100%,100%,100%);fill-opacity:1;" d="M 6.492188 58.402344 C 6.316406 58.402344 6.144531 58.335938 6.015625 58.207031 C 5.851562 58.039062 5.785156 57.789062 5.847656 57.5625 L 9.367188 44.714844 C 7.183594 40.839844 6.035156 36.441406 6.039062 31.972656 C 6.042969 17.652344 17.699219 6 32.019531 6 C 38.964844 6.003906 45.492188 8.707031 50.398438 13.617188 C 55.300781 18.527344 58.003906 25.054688 58 31.992188 C 57.996094 46.3125 46.339844 57.964844 32.019531 57.964844 C 27.765625 57.964844 23.558594 56.914062 19.828125 54.929688 L 6.660156 58.382812 C 6.605469 58.398438 6.546875 58.402344 6.492188 58.402344 Z M 6.492188 58.402344 "/>
<path style=" stroke:none;fill-rule:nonzero;fill:rgb(100%,100%,100%);fill-opacity:1;" d="M 32.019531 6.667969 C 38.789062 6.667969 45.144531 9.304688 49.925781 14.089844 C 54.703125 18.871094 57.335938 25.230469 57.332031 31.992188 C 57.328125 45.945312 45.96875 57.296875 32.019531 57.296875 L 32.007812 57.296875 C 27.773438 57.296875 23.609375 56.234375 19.910156 54.21875 L 6.492188 57.738281 L 10.082031 44.625 C 7.867188 40.785156 6.703125 36.433594 6.703125 31.972656 C 6.710938 18.019531 18.0625 6.667969 32.019531 6.667969 M 32.019531 57.296875 L 32.019531 57.296875 M 32.019531 57.296875 L 32.019531 57.296875 M 32.019531 5.332031 C 17.332031 5.332031 5.375 17.28125 5.371094 31.972656 C 5.367188 36.460938 6.5 40.886719 8.652344 44.800781 L 5.203125 57.386719 C 5.078125 57.847656 5.207031 58.335938 5.542969 58.675781 C 5.796875 58.933594 6.136719 59.070312 6.492188 59.070312 C 6.605469 59.070312 6.71875 59.058594 6.828125 59.027344 L 19.746094 55.640625 C 23.515625 57.597656 27.742188 58.632812 32.007812 58.632812 C 46.707031 58.632812 58.660156 46.683594 58.667969 31.992188 C 58.671875 24.875 55.902344 18.179688 50.871094 13.148438 C 45.835938 8.109375 39.144531 5.335938 32.019531 5.332031 Z M 32.019531 5.332031 "/>
<path style=" stroke:none;fill-rule:nonzero;fill:rgb(0%,90.196078%,46.27451%);fill-opacity:1;" d="M 46.902344 17.109375 C 42.929688 13.132812 37.648438 10.941406 32.023438 10.941406 C 20.421875 10.941406 10.980469 20.375 10.976562 31.972656 C 10.976562 35.949219 12.085938 39.816406 14.191406 43.167969 L 14.695312 43.964844 L 12.566406 51.726562 L 20.53125 49.636719 L 21.300781 50.09375 C 24.53125 52.011719 28.234375 53.023438 32.011719 53.023438 L 32.019531 53.023438 C 43.617188 53.023438 53.054688 43.589844 53.058594 31.992188 C 53.058594 26.371094 50.875 21.085938 46.902344 17.109375 Z M 46.902344 17.109375 "/>
<path style=" stroke:none;fill-rule:evenodd;fill:rgb(100%,100%,100%);fill-opacity:1;" d="M 25.691406 21.394531 C 25.21875 20.339844 24.71875 20.320312 24.265625 20.300781 C 23.898438 20.285156 23.476562 20.285156 23.054688 20.285156 C 22.632812 20.285156 21.949219 20.445312 21.367188 21.078125 C 20.789062 21.710938 19.152344 23.238281 19.152344 26.351562 C 19.152344 29.464844 21.421875 32.472656 21.734375 32.894531 C 22.050781 33.316406 26.113281 39.90625 32.542969 42.441406 C 37.882812 44.546875 38.972656 44.128906 40.132812 44.023438 C 41.292969 43.917969 43.875 42.496094 44.402344 41.015625 C 44.929688 39.539062 44.929688 38.273438 44.769531 38.011719 C 44.613281 37.746094 44.191406 37.589844 43.558594 37.273438 C 42.925781 36.953125 39.816406 35.425781 39.234375 35.214844 C 38.65625 35.003906 38.234375 34.898438 37.8125 35.53125 C 37.390625 36.164062 36.179688 37.589844 35.808594 38.011719 C 35.441406 38.433594 35.070312 38.488281 34.4375 38.167969 C 33.808594 37.851562 31.769531 37.183594 29.351562 35.03125 C 27.472656 33.355469 26.203125 31.285156 25.832031 30.652344 C 25.464844 30.019531 25.792969 29.675781 26.109375 29.359375 C 26.394531 29.074219 26.742188 28.621094 27.058594 28.253906 C 27.375 27.882812 27.480469 27.617188 27.691406 27.199219 C 27.902344 26.773438 27.796875 26.40625 27.636719 26.089844 C 27.484375 25.773438 26.253906 22.644531 25.691406 21.394531 Z M 25.691406 21.394531 "/>
</g>
</svg>
